<?xml version="1.0" encoding="utf-8"?>
<!-- Generator: Adobe Adobe Illustrator 24.2.0, SVG Export Plug-In . SVG Version: 6.00 Build 0)  -->
<svg version="1.1" xmlns="http://www.w3.org/2000/svg" xmlns:xlink="http://www.w3.org/1999/xlink" x="0px" y="0px"
	 viewBox="0 0 595.28 841.89" style="enable-background:new 0 0 595.28 841.89;" xml:space="preserve">
<g id="Ebene_1">
</g>
<g id="Ebene_2">
	<g>
		<path d="M132.46,585.81c-1.97-8.72-4.17-17.15-5.72-25.71c-1.02-5.65-1.24-11.47-1.59-17.22c-0.4-6.53-0.74-13.06-2.25-19.44
			c-0.67-2.85-1.61-5.63-2.5-8.43c-1.82-5.71-3.1-11.51-3.04-17.55c0.08-7.03,2.89-12.7,7.98-17.47c6.25-5.86,13.45-8.96,21.97-9.15
			c2.39-0.05,4.8-0.62,7.13-1.22c3.34-0.87,6.62-1.96,9.91-3.02c10.13-3.25,20.53-4.81,31.12-4.66c5.58,0.08,11.15,0.81,16.73,1.16
			c2.97,0.19,5.96,0.33,8.93,0.24c2.98-0.09,4.48-2.37,3.53-5.26c-3.68-11.28-5.9-22.88-7.49-34.61c-0.45-3.37-0.58-6.79-0.69-10.19
			c-0.12-3.5,0.12-7.02-0.07-10.52c-0.39-7.13,0.89-13.95,3.21-20.63c1.75-5.05,2.9-10.23,2.45-15.6
			c-0.7-8.34,2.34-15.28,7.77-21.17c4.46-4.83,9.31-9.28,14.01-13.88c3.76-3.68,7.55-7.33,11.32-10.99
			c0.13-0.13,0.26-0.27,0.39-0.41c5.24-5.26,1.7-9.23-3.01-11.24c-1.85-0.79-4-0.81-6-1.28c-1.71-0.4-3.49-0.71-5.06-1.45
			c-2.65-1.24-3.41-3.17-2.13-5.81c1.14-2.37,1.57-4.8,1.75-7.37c0.08-1.21,0.39-2.43,0.79-3.58c0.5-1.44,0.12-2.25-1.22-2.96
			c-4.36-2.32-4.34-2.36-0.7-5.75c0.41-0.38,0.79-0.82,1.23-1.16c3.47-2.63,5.53-5.95,6.53-10.4c1.52-6.75,5.89-11.73,11.53-15.51
			c4-2.68,8.28-4.75,13.06-5.54c1.25-0.21,2.53-0.16,4.1-0.25c-0.9,2.98-1.61,5.62-2.51,8.19c-2.33,6.69-3.27,13.59-3.31,20.65
			c-0.02,4.26-0.07,8.53-0.03,12.79c0.05,4.76-1.61,9.08-3.09,13.47c-1,2.95-1.85,5.95-2.73,8.94c-0.14,0.48-0.08,1.03,0.27,1.65
			c0.73-1.81,1.36-3.67,2.21-5.42c3.65-7.55,5.16-15.53,5.07-23.91c-0.07-6.81-0.36-13.67,1.14-20.38
			c0.88-3.96,2.11-7.84,3.14-11.77c1.33-5.03,2.65-10.05,3.9-15.1c0.34-1.37,0.48-2.8,0.57-4.21c0.46-7.04,3.01-13.42,5.84-19.73
			c4.12-9.18,9.21-17.75,15.18-25.8c4.98-6.72,8.84-14.02,11.21-22.11c0.35-1.18,0.74-2.35,1.24-3.47c1.13-2.52,2.87-4.56,5.58-5.21
			c5.79-1.39,9.14-5.54,11.93-10.4c1.31-2.29,2.52-4.64,3.87-6.91c0.49-0.82,1.03-2.12,2.31-1.42c1.23,0.68,0.61,1.89,0.2,2.78
			c-1.26,2.74-2.61,5.44-3.99,8.12c-1.2,2.32-2.5,4.58-3.76,6.87c0.14,0.11,0.29,0.23,0.43,0.34c0.39-0.41,0.89-0.76,1.15-1.24
			c2.1-3.79,4.15-7.61,6.24-11.41c0.61-1.11,0.87-2.56,2.52-2.78c1.18,1,0.84,2.27,0.52,3.41c-0.36,1.26-0.98,2.45-1.45,3.68
			c-1.77,4.58-3.6,9.13-5.28,13.74c-0.97,2.65-1.29,5.23,0.65,7.79c1.35,1.78,0.78,3.62-1.17,4.81c-1.01,0.62-2.2,1.04-3.36,1.3
			c-3.91,0.88-6.87,2.94-9.25,6.3c-6.27,8.83-10.34,18.6-12.76,29.13c-0.42,1.83-0.52,3.75-0.6,5.64
			c-0.23,4.99-1.24,9.78-3.68,14.15c-3.73,6.68-5.66,13.91-7.32,21.35c-1.91,8.53-2.86,17.17-3.91,25.81
			c-0.31,2.57,0.22,5.26,0.54,7.88c0.31,2.53,0.84,5.04,1.29,7.55c0.94,5.28,0.82,10.5-0.23,15.79c-1.86,9.36-2.11,18.8-0.68,28.26
			c1.03,6.79,0.09,13.42-1.58,19.96c-1.14,4.48-2.73,8.85-3.98,13.31c-2.54,9.05-7.15,17.27-10.01,26.19
			c-2.06,6.41-3.89,12.87-4.27,19.63c-0.37,6.79,0.54,13.41,2.9,19.81c1.26,3.41,3.25,6.15,6.38,7.99c2.58,1.52,5.13,3.1,7.72,4.6
			c9.35,5.4,14.84,13.53,16.73,24.25c0.7,3.99,0.98,8.07,2.81,11.81c1.71,3.5,3.66,6.76,6.35,9.62
			c9.22,9.78,19.95,17.64,30.73,25.45c7.67,5.55,15.5,10.87,23.08,16.53c7.58,5.67,15.83,9.52,25.17,10.97
			c5.52,0.86,11.04,1.77,16.5,2.91c6.61,1.38,12.75,4.12,18.78,7.18c14.65,7.44,28.35,16.4,41.49,26.27
			c2.47,1.86,5.04,3.59,7.53,5.43c5.41,4,11.66,6.29,17.71,8.99c2.89,1.29,5.87,2.48,8.54,4.15c3.69,2.31,4.33,5.87,2.4,9.87
			c-1.69,3.49-4.28,6.19-7.1,8.69c-5.98,5.3-11.85,10.7-16.97,16.89c-1.31,1.58-3,2.83-4.55,4.18c-3.07,2.66-6.73,3.09-10.55,2.61
			c-5.07-0.64-10.12-1.38-15.18-2.13c-1.75-0.26-3.47-0.68-5.2-1.08c-1.15-0.27-2.23-0.77-2.12-2.2c0.1-1.24,1.16-1.68,2.18-1.87
			c4.1-0.77,8.21-1.56,12.33-2.16c2.44-0.35,4.33-1.37,5.12-3.76c0.8-2.4,1.25-4.93,1.99-7.36c0.88-2.88,1.9-5.71,2.91-8.55
			c0.38-1.07,0.95-2.06,1.35-3.12c1.28-3.33,0.66-4.97-2.29-6.91c-7.02-4.6-14.65-7.88-22.48-10.66c-7.38-2.63-14.85-5-22.28-7.49
			c-3.01-1.01-6.05-1.93-9.02-3.04c-12.01-4.5-24.44-7.4-36.94-10.06c-10.11-2.15-20.36-3.79-30.09-7.47
			c-11-4.16-22.26-7.63-32.82-12.93c-15.4-7.73-29.74-16.98-41.67-29.74c-3.34-3.57-6.89-6.94-10.24-10.51
			c-2.82-3.01-5.87-3.74-9.85-2.42c-7.65,2.54-15.55,3.87-23.63,4c-7.93,0.13-15.85,0.29-23.78,0.53c-8.1,0.24-15.96-1.3-23.76-3.2
			c-4.89-1.19-9.76-2.49-14.6-3.88c-4.56-1.3-9.16-1.56-13.84-1.03c-3.96,0.45-5.61,2.4-5.25,6.49c0.38,4.27,1.5,8.38,3.18,12.31
			c2.54,5.99,3.56,12.28,4.12,18.75c0.95,10.9-0.72,21.52-2.64,32.16c-1.71,9.47-1.96,19.01-0.88,28.56c0.32,2.8,1.44,5.49,1.9,8.28
			c1.02,6.15,1.91,12.33,2.73,18.51c0.45,3.46-1.26,5.74-4.28,7.21c-3.31,1.61-6.81,1.87-10.38,1.7
			c-13.33-0.65-26.64-0.65-39.97,0.56c-5.15,0.47-10.46,0.39-15.38-1.93c-0.76-0.36-1.55-0.7-2.22-1.19
			c-3.03-2.23-2.77-5.69,0.73-7.05c2.85-1.11,5.86-1.91,8.87-2.44c3.94-0.68,7.48-2.12,10.87-4.24c4.29-2.67,8.8-4.97,13.08-7.64
			c4.83-3,8.12-7.41,10.48-12.61C134,598.6,134.09,592.39,132.46,585.81z"/>
		<path d="M330.54,287.33c0.07,1.88,0.26,3.49,0.16,5.09c-0.29,4.77,0.55,9.44,1.21,14.12c0.58,4.07,2.34,7.76,4.03,11.46
			c0.48,1.06,0.84,2.18,0.95,3.4c-4.09-4.97-7.16-10.44-8.83-16.76c0.12,1.12,0.17,2.25,0.37,3.35c0.22,1.2,0.57,2.39,0.91,3.56
			c0.34,1.18,0.63,2.4,1.14,3.5c2.78,5.95,2.93,12.03,1.04,18.25c-0.62,2.03-1.14,4.09-1.98,6.13c-0.95-1.09-0.98-2.34-1.06-3.6
			c-0.4-6.39-2.02-12.49-4.14-18.48c-0.09-0.25-0.24-0.48-0.66-1.28c-0.74,4.65-0.96,8.56-0.71,12.49
			c0.36,5.51,1.39,10.87,3.34,16.04c1.39,3.69,1.62,7.56,1.4,11.47c-0.03,0.51-0.29,1.01-0.57,1.92
			c-3.59-6.47-6.97-12.57-10.36-18.68c-0.09,0.03-0.19,0.06-0.28,0.08c0.39,1.12,0.71,2.28,1.2,3.35
			c3.23,7.04,2.07,13.54-2.01,19.87c-3.82,5.94-7.39,12.06-11.06,18.1c-1.81,2.98-2.3,6.35-2.64,10.12c-0.7-0.4-1.34-0.57-1.67-0.99
			c-4.31-5.53-7.49-11.66-7.56-18.83c-0.03-3.33,1.1-6.68,1.82-9.99c0.54-2.49,1.59-4.91,1.82-7.42c0.44-4.7,0.64-9.44,0.62-14.15
			c-0.03-6.57,0.39-13.06,2.16-19.4c0.42-1.52,1.07-2.97,1.76-4.85c2,2.56,1.92,5.44,3.31,7.78c-0.24-1.41-0.43-2.83-0.73-4.23
			c-2.28-10.53-2.49-21.01,0.68-31.43c1.04-3.44,1.93-6.92,2.91-10.38c1.19-4.21,1.14-8.2-1.63-11.87c-1.38-1.84-0.7-3.94-0.54-6.09
			c4.22-0.69,8.11,0.04,11.68,2.08c6.5,3.73,10.65,9.39,12.36,16.77C329.69,280.87,330.03,283.99,330.54,287.33z"/>
		<path d="M340.81,670.58c-0.55,10.94-1.08,21.71-1.62,32.67c-5.43,0-10.6,0-15.77,0c-0.32-2.19,5.25-52.43,6.33-57.02
			c6.09,0,12.21,0,18.7,0c1.55,9.03,3.22,18.08,4.61,27.29c1.67-9.06,3.35-18.12,5.04-27.29c6.28,0,12.4,0,18.87,0
			c1.81,18.94,3.61,37.84,5.41,56.69c-2.21,0.63-11.92,0.76-15.84,0.24c-0.48-10.55-0.96-21.17-1.44-31.79
			c-0.15-0.01-0.29-0.02-0.44-0.03c-1.95,10.6-3.91,21.19-5.89,31.92c-4.17,0-8.13,0-12.43,0c-0.56-3.37-1.15-6.79-1.69-10.22
			c-1.17-7.48-2.31-14.97-3.46-22.45c-0.01-0.09-0.04-0.19-0.06-0.28C341.03,670.35,340.93,670.39,340.81,670.58z"/>
		<path d="M294.15,681.35c0,7.39,0,14.49,0,21.91c-2.51,0.34-4.91,0.13-7.29,0.16c-2.33,0.04-4.65,0.01-7.3,0.01
			c-3.59-9.94-7.17-19.86-10.75-29.78c-0.57,4.9,0.21,9.8,0.16,14.7c-0.06,4.91-0.01,9.81-0.01,14.9c-4.9,0-9.51,0-14.33,0
			c0-18.96,0-37.86,0-56.97c4.69,0,9.4,0,14.36,0c1.93,5.09,3.95,10.27,5.88,15.49c1.91,5.19,3.73,10.41,5.91,15.53
			c-0.37-5.17-0.89-10.34-1.08-15.52c-0.19-5.1-0.04-10.21-0.04-15.51c4.79,0,9.41,0,14.06,0c0.03,0.03,0.1,0.1,0.16,0.17
			c0.06,0.07,0.16,0.15,0.16,0.22C294.08,658.13,294.11,669.6,294.15,681.35z"/>
		<path d="M575.84,646.07c1.76,0,3.24,0,4.66,0c0.6,2.23,0.84,51.61,0.28,57.28c-2.32,0.03-4.7,0.07-7.08,0.08
			c-2.33,0.01-4.65,0-7.2,0c-3.67-10.17-7.31-20.26-11.06-30.66c0.17,10.32,0.34,20.29,0.5,30.46c-4.96,0-9.58,0-14.21,0
			c-0.58-1.98-0.81-51.67-0.25-56.85c2.31-0.68,4.72-0.21,7.1-0.29c2.32-0.08,4.65-0.02,7.37-0.02c3.93,10.68,7.85,21.37,11.91,32.4
			c-0.46-5.63-1.05-10.89-1.26-16.16c-0.21-5.28-0.05-10.57-0.05-16.25C569.67,646.07,572.62,646.07,575.84,646.07z"/>
		<path d="M102.22,700.72c-4.27-3.17-6.29-7.39-6.82-12.42c-0.16-1.5-0.33-3.02-0.33-4.53c-0.03-11.75-0.02-23.49-0.01-35.24
			c0-0.65,0.06-1.31,0.1-1.93c1.99-0.64,10.11-0.82,15.05-0.31c0.05,1.04,0.13,2.14,0.13,3.23c0.01,10.61-0.01,21.22,0.02,31.83
			c0,1.7,0.05,3.42,0.29,5.1c0.34,2.37,1.63,3.47,3.72,3.43c2.1-0.04,3.22-1.12,3.51-3.61c0.18-1.59,0.21-3.21,0.21-4.82
			c0.02-10.71,0.01-21.41,0.01-32.12c0-1.01,0-2.03,0-3.15c5.22,0,10.05,0,15.12,0c0.07,0.88,0.18,1.7,0.18,2.52
			c0.01,12.32,0.04,24.63-0.02,36.95c-0.01,2.16-0.13,4.4-0.69,6.47c-1.87,6.87-6.82,10.5-13.38,11.77
			C113.38,705.05,107.59,704.36,102.22,700.72z"/>
		<path d="M72.44,698.52c-2.13-5.76-4.18-11.31-6.24-16.87c-0.13,0.01-0.26,0.03-0.39,0.04c0,7.11,0,14.22,0,21.54
			c-5.14,0-10.02,0-15.04,0c0-19.01,0-37.91,0-56.96c0.63-0.07,1.16-0.18,1.7-0.18c5.13-0.01,10.26-0.06,15.38,0.05
			c2.04,0.04,4.1,0.28,6.1,0.69c8.8,1.83,14.05,8.46,14.17,17.83c0.08,6.23-2.03,11.3-7.7,14.37c-0.24,0.13-0.43,0.34-0.91,0.74
			c3.63,7.68,7.28,15.4,11.06,23.38c-2.89,0.56-5.54,0.22-8.18,0.28c-2.61,0.06-5.21,0.01-8.04,0.01
			C73.73,701.85,73.12,700.29,72.44,698.52z M69.17,672.11c3.13-1.7,4.1-4.52,3.74-7.87c-0.41-3.82-2.99-5.56-6.86-4.85
			c-0.49,3.82-0.34,11.19,0.31,13.26C67.14,672.52,67.95,672.39,69.17,672.11z"/>
		<path d="M425.26,653.51c3.4,5.09,4.77,10.63,5.3,16.47c0.58,6.39,0.21,12.69-1.92,18.77c-0.74,2.12-1.75,4.18-2.89,6.12
			c-7.7,13.07-24.76,12.13-32.48,0.6c-2.51-3.76-3.95-7.91-4.67-12.35c-1.13-7-1.15-13.99,0.89-20.81c0.8-2.68,1.97-5.35,3.45-7.7
			C401.19,641.55,417.98,642.42,425.26,653.51z M414.78,678.9c-0.07-3.77,0.04-7.56-0.28-11.31c-0.17-2.01-0.82-4.11-1.73-5.91
			c-1.44-2.84-4.51-2.93-6.3-0.31c-0.78,1.14-1.41,2.49-1.72,3.84c-1.48,6.54-1.47,13.11,0.14,19.63c0.31,1.25,0.91,2.51,1.67,3.54
			c1.52,2.05,3.85,2.06,5.46,0.09c0.64-0.78,1.19-1.74,1.44-2.71C413.99,683.67,414.32,681.53,414.78,678.9z"/>
		<path d="M534.55,676.76c-0.12,6.15-1.3,11.77-4.19,16.89c-3.21,5.7-7.66,9.79-14.4,10.52c-8.64,0.94-15.91-3.02-20.17-10.9
			c-2.01-3.71-3.1-7.71-3.58-11.88c-0.76-6.74-0.69-13.44,1.34-19.98c1.35-4.33,3.56-8.12,6.87-11.21
			c8.4-7.85,21.24-6.71,28.13,2.53c3.73,5,5.29,10.8,5.83,16.93C534.58,671.93,534.51,674.21,534.55,676.76z M515.17,659.99
			c-2.85-0.73-4.07-0.35-5.3,2.1c-0.79,1.58-1.51,3.33-1.67,5.06c-0.36,4.03-0.54,8.11-0.44,12.15c0.07,2.91,0.59,5.86,2.15,8.43
			c1.76,2.89,4.79,2.94,6.46,0.01c0.86-1.52,1.44-3.3,1.77-5.03c1.05-5.63,0.92-11.3-0.04-16.93
			C517.75,663.75,517.19,661.71,515.17,659.99z"/>
		<path d="M140.1,661.28c0.26-1.25,0.42-2.29,0.72-3.28c3.02-10.2,11.73-15.05,21.84-12.14c1.76,0.51,3.45,1.3,5.17,1.96
			c0,5.67,0,11.04,0,16.86c-0.77-0.75-1.22-1.29-1.77-1.69c-1.65-1.19-3.26-2.49-5.06-3.4c-0.9-0.46-2.23-0.44-3.25-0.18
			c-2.53,0.62-3.5,3.15-1.99,5.31c0.84,1.2,2.1,2.11,3.21,3.11c2.22,2.01,4.67,3.8,6.68,6c7.18,7.86,4.79,26.36-9.48,29.97
			c-5.43,1.37-10.69,0.25-15.9-1.81c0-5.7,0-11.26,0-17.35c0.88,0.85,1.51,1.45,2.12,2.05c1.85,1.82,3.93,3.22,6.58,3.41
			c0.91,0.06,1.89,0.01,2.75-0.27c2.21-0.71,3.18-2.92,2.07-4.98c-0.65-1.2-1.68-2.24-2.7-3.18c-1.93-1.78-4.09-3.31-5.94-5.17
			C141.04,672.39,139.29,667.38,140.1,661.28z"/>
		<path d="M180.69,693.86c-0.02-11.27-0.04-22.25-0.08-33.23c0-0.17-0.13-0.34-0.32-0.78c-2.45,0-5.02,0-7.8,0c0-4.66,0-9.04,0-13.6
			c10.67,0,21.24,0,32.01,0c0,4.39,0,8.71,0,13.38c-2.66,0-5.4,0-8.48,0c0,14.71,0,29.06,0,43.61c-5.22,0-10.1,0-15.34,0
			C180.69,700.15,180.69,697.15,180.69,693.86z"/>
		<path d="M466.16,654.03c0,1.97,0,3.66,0,5.62c-2.88,0-5.54,0-8.53,0c-0.08,1.34-0.2,2.42-0.2,3.51
			c-0.01,12.22-0.01,24.43-0.01,36.65c0,1.1,0,2.21,0,3.47c-5.19,0-10,0-15.18,0c-0.19-2.81-0.06-5.62-0.08-8.42
			c-0.02-2.94,0-5.87,0-8.81c0-2.84,0-5.68,0-8.52c0-2.94,0-5.87,0-8.81c0-2.83,0-5.67,0-8.88c-2.81,0-5.45,0-8.24,0
			c0-4.69,0-9,0-13.3c2.07-0.58,26.37-0.8,32.12-0.27C466.29,648.71,466.11,651.24,466.16,654.03z"/>
		<path d="M37.81,690.45c0,4.35,0,8.42,0,12.43c-2.04,0.67-10.62,0.84-15.15,0.29c-0.1-3.49-0.03-7.05-0.05-10.6
			c-0.01-3.6,0-7.2,0-10.79s0-7.2,0-10.79c0-3.58,0-7.17,0-11.03c-2.77,0-5.33,0-8,0c-0.72-2.45-0.32-4.71-0.39-6.93
			c-0.07-2.17-0.02-4.34-0.02-6.46c2.14-0.59,27.31-0.79,31.89-0.3c0.59,2.01,0.7,9.99,0.13,13.41c-2.61,0-5.27,0-7.65,0
			c-0.35,0.33-0.42,0.39-0.48,0.46c-0.06,0.07-0.15,0.15-0.15,0.22C37.9,670.29,37.86,680.23,37.81,690.45z"/>
		<path d="M231.1,665.99c0-6.71,0-13.13,0-19.73c5.17,0,10.06,0,15.12,0c0,18.99,0,37.9,0,56.99c-5.01,0-9.88,0-15.12,0
			C231.1,690.85,231.1,678.56,231.1,665.99z"/>
		<path d="M481.18,646.07c1.47,0,2.68,0,4.08,0c0,19.19,0,38.17,0,57.25c-5.03,0-9.85,0-14.88,0c0-19.01,0-37.91,0-57.17
			C473.89,645.99,477.4,646.11,481.18,646.07z"/>
		<path d="M308.7,248.37c-1.56,3.2-3.01,6.22-4.52,9.32c-1.75-1.98-3.38-3.52-4.6-5.35c-0.51-0.77-0.32-2.18-0.16-3.25
			c0.81-5.42,3.09-10.3,5.62-15.05c2.29-4.31,3.62-8.9,4.39-13.69c0.55-3.45,0.91-6.93,1.5-10.37c0.36-2.13,0.81-4.29,1.53-6.32
			c2.46-6.97,5.49-13.66,9.53-19.85c1.92-2.94,4.18-5.25,7.69-6.15c1.79-0.46,3.51-1.26,5.19-2.06c3.05-1.45,4.23-4.42,2.37-7.26
			c-1.81-2.77-1.54-5.28-0.47-8.03c1.91-4.92,3.8-9.85,5.72-14.78c0.16-0.42,0.45-0.79,0.68-1.2c1.63,1.24,1.83,2.1,0.93,4.36
			c-1.05,2.63-2.18,5.23-3.24,7.85c-0.57,1.4-1.18,2.79-1.6,4.24c-0.73,2.5-0.67,4.88,1.56,6.71c0.29,0.24,0.52,0.55,0.76,0.83
			c2.62,3,2.26,6.65-1.1,8.91c-1.76,1.19-3.78,2.05-5.76,2.84c-2.98,1.19-5.47,2.98-7,5.82c-4.38,8.14-8.26,16.56-11.13,25.35
			c-1.39,4.24-1.59,8.9-2.11,13.4c-0.7,6.12-1.49,12.2-3.45,18.06C310.4,244.56,309.55,246.36,308.7,248.37z"/>
		<path d="M301.76,257.49c0.02,1.03-0.11,1.86-0.15,2.69c-0.1,2.23,0.13,4.24,2.12,5.8c2.27,1.77,2.19,4.56,1.95,7.05
			c-0.29,3-1.07,5.95-1.75,8.9c-0.51,2.21-1.18,4.38-1.79,6.57c-2.31,8.33-2.89,16.75-1.34,25.28c-1.36,1.59-2.96,1.42-4.94,1.06
			c0.23-1.87,0.32-3.64,0.7-5.34c1.46-6.6,1.31-13.23-0.22-19.72c-2.04-8.63-1.17-17.09,0.38-25.61c0.49-2.7,0.95-5.4,1.45-8.1
			c0.08-0.43,0.28-0.85,0.59-1.77C299.9,255.48,300.78,256.39,301.76,257.49z"/>
		<path d="M320.84,149.68c2.58-0.07,2.86,0.15,2.73,2.01c-0.16,2.49-0.74,2.92-3.76,2.72C319.19,152.71,319.4,151.16,320.84,149.68z
			"/>
		<path d="M315.44,155.17c0.04-0.79-0.01-1.37,0.15-1.9c0.32-1.1,1.12-1.44,2.16-1.08c0.96,0.33,1.16,1.14,1.01,2.04
			c-0.2,1.26-1.56,2.25-2.85,2.04C315.71,156.26,315.6,155.71,315.44,155.17z"/>
		<path d="M327.42,151.14c-0.86,0.69-1.59,1.21-2.43,1.82c-0.84-1.45-0.28-2.52,0.38-3.33c0.36-0.44,1.38-0.71,1.94-0.53
			C328.29,149.41,327.92,150.27,327.42,151.14z"/>
	</g>
</g>
</svg>
